HIERARCHY
ROOT Hips
{
	OFFSET 0.000000 0.000000 0.000000
	CHANNELS 6 Xposition Yposition Zposition Zrotation Yrotation Xrotation 
	JOINT LHipJoint
	{
		OFFSET 0.000000 0.000000 0.000000
		CHANNELS 3 Zrotation Yrotation Xrotation
		JOINT LeftUpLeg
		{
			OFFSET 1.363060 -1.794630 0.839290
			CHANNELS 3 Zrotation Yrotation Xrotation
			JOINT LeftLeg
			{
				OFFSET 2.448110 -6.726130 0.000000
				CHANNELS 3 Zrotation Yrotation Xrotation
				JOINT LeftFoot
				{
					OFFSET 2.562200 -7.039590 0.000000
					CHANNELS 3 Zrotation Yrotation Xrotation
					JOINT LeftToeBase
					{
						OFFSET 0.157640 -0.433110 2.322550
						CHANNELS 3 Zrotation Yrotation Xrotation
						End Site
						{
							OFFSET 0.000000 0.000000 0.000000
						}
					}
				}
			}
		}
	}
	JOINT RHipJoint
	{
		OFFSET 0.000000 0.000000 0.000000
		CHANNELS 3 Zrotation Yrotation Xrotation
		JOINT RightUpLeg
		{
			OFFSET -1.305520 -1.794630 0.839290
			CHANNELS 3 Zrotation Yrotation Xrotation
			JOINT RightLeg
			{
				OFFSET -2.542530 -6.985550 0.000000
				CHANNELS 3 Zrotation Yrotation Xrotation
				JOINT RightFoot
				{
					OFFSET -2.568260 -7.056230 0.000000
					CHANNELS 3 Zrotation Yrotation Xrotation
					JOINT RightToeBase
					{
						OFFSET -0.164730 -0.452590 2.363150
						CHANNELS 3 Zrotation Yrotation Xrotation
						End Site
						{
							OFFSET 0.000000 0.000000 0.000000
						}
					}
				}
			}
		}
	}
	JOINT LowerBack
	{
		OFFSET 0.000000 0.000000 0.000000
		CHANNELS 3 Zrotation Yrotation Xrotation
		JOINT Spine
		{
			OFFSET 0.028270 2.035590 -0.193380
			CHANNELS 3 Zrotation Yrotation Xrotation
			JOINT Spine1
			{
				OFFSET 0.056720 2.048850 -0.042750
				CHANNELS 3 Zrotation Yrotation Xrotation
				JOINT Neck
				{
					OFFSET 0.000000 0.000000 0.000000
					CHANNELS 3 Zrotation Yrotation Xrotation
					JOINT Neck1
					{
						OFFSET -0.054170 1.746240 0.172020
						CHANNELS 3 Zrotation Yrotation Xrotation
						JOINT Head
						{
							OFFSET 0.104070 1.761360 -0.123970
							CHANNELS 3 Zrotation Yrotation Xrotation
							End Site
							{
								OFFSET 0.000000 0.000000 0.000000
							}
						}
					}
				}
				JOINT LeftShoulder
				{
					OFFSET 0.000000 0.000000 0.000000
					CHANNELS 3 Zrotation Yrotation Xrotation
					JOINT LeftArm
					{
						OFFSET 3.362410 1.200890 -0.311210
						CHANNELS 3 Zrotation Yrotation Xrotation
						JOINT LeftForeArm
						{
							OFFSET 4.983000 -0.000000 -0.000000
							CHANNELS 3 Zrotation Yrotation Xrotation
							JOINT LeftHand
							{
								OFFSET 3.483560 -0.000000 -0.000000
								CHANNELS 3 Zrotation Yrotation Xrotation
								JOINT LeftFingerBase
								{
									OFFSET 0.000000 0.000000 0.000000
									CHANNELS 3 Zrotation Yrotation Xrotation
									JOINT LeftHandIndex1
									{
										OFFSET 0.715260 -0.000000 -0.000000
										CHANNELS 3 Zrotation Yrotation Xrotation
										End Site
										{
											OFFSET 0.000000 0.000000 0.000000
										}
									}
								}
								JOINT LThumb
								{
									OFFSET 0.000000 0.000000 0.000000
									CHANNELS 3 Zrotation Yrotation Xrotation
									End Site
									{
										OFFSET 0.000000 0.000000 0.000000
									}
								}
							}
						}
					}
				}
				JOINT RightShoulder
				{
					OFFSET 0.000000 0.000000 0.000000
					CHANNELS 3 Zrotation Yrotation Xrotation
					JOINT RightArm
					{
						OFFSET -3.136600 1.374050 -0.404650
						CHANNELS 3 Zrotation Yrotation Xrotation
						JOINT RightForeArm
						{
							OFFSET -5.241900 -0.000000 -0.000000
							CHANNELS 3 Zrotation Yrotation Xrotation
							JOINT RightHand
							{
								OFFSET -3.444170 -0.000000 -0.000000
								CHANNELS 3 Zrotation Yrotation Xrotation
								JOINT RightFingerBase
								{
									OFFSET 0.000000 0.000000 0.000000
									CHANNELS 3 Zrotation Yrotation Xrotation
									JOINT RightHandIndex1
									{
										OFFSET -0.622530 -0.000000 -0.000000
										CHANNELS 3 Zrotation Yrotation Xrotation
										End Site
										{
											OFFSET 0.000000 0.000000 0.000000
										}
									}
								}
								JOINT RThumb
								{
									OFFSET 0.000000 0.000000 0.000000
									CHANNELS 3 Zrotation Yrotation Xrotation
									End Site
									{
										OFFSET 0.000000 0.000000 0.000000
									}
								}
							}
						}
					}
				}
			}
		}
	}
}
MOTION
Frames: 5
Frame Time: 0.008333
1.523729 17.544235 0.583127 27.606121 86.236287 50.345993 -10.622144 -0.061434 -0.671887 -11.374088 2.833316 -42.179803 -0.768206 2.279624 43.796598 2.592424 14.887505 -2.140041 1.798000 -0.000000 -37.768099 8.496600 -1.019232 0.820792 8.273688 2.251030 -19.506665 2.633431 0.642575 9.135230 -0.646063 -2.085261 -4.495096 -0.476299 0.000000 -39.944200 1.972012 -0.418702 1.072642 -0.433945 -0.571546 -2.636297 -6.027553 -0.642998 0.975443 7.708652 -0.391143 -3.924480 -3.521088 -0.293940 0.840675 0.000000 0.000000 0.000000 -2.345097 5.804722 3.246826 -47.376746 8.209514 25.841648 -4.037020 -37.358358 -0.026494 -11.958391 3.080020 -0.328711 -0.134931 -0.095706 -0.000000 0.000000 0.000000 0.000000 0.000000 0.000000 0.000000 13.684712 2.508368 1.298986 59.440119 30.862165 16.513643 2.787141 39.982658 0.023628 5.727661 9.939421 0.508953 0.010310 -0.209297 0.000000 0.000000 0.000000 0.000000 0.000000 0.000000 0.000000 
1.716823 17.556019 0.601191 24.672647 85.911419 47.321679 -10.413528 -0.113470 -0.578483 -11.636122 2.791169 -42.651657 -0.968936 2.095119 40.888190 2.559745 14.560503 -1.999229 1.851100 0.000000 -37.522799 8.617634 -1.045905 0.712897 8.134444 1.982752 -18.068945 2.649489 0.716186 7.986451 -0.530267 -1.629894 -3.972731 -0.458300 0.000000 -40.737901 1.567352 -0.201910 1.109908 -0.501893 -0.326722 -2.626011 -5.921337 -0.396253 0.992097 7.478688 -0.414942 -3.948072 -3.438292 -0.288488 0.833989 0.000000 0.000000 0.000000 -2.539340 6.294529 3.202146 -47.324770 8.937339 25.571120 -4.068724 -37.131302 -0.027696 -11.987972 3.111121 -0.333350 -0.135555 -0.100391 -0.000000 0.000000 0.000000 0.000000 0.000000 0.000000 0.000000 13.121391 2.709254 1.282629 58.715791 31.799929 17.612514 2.660251 41.869080 0.023339 5.515183 9.965193 0.492055 0.007512 -0.219351 0.000000 0.000000 0.000000 0.000000 0.000000 0.000000 0.000000 
1.910660 17.560589 0.617793 22.075112 85.613351 44.632361 -10.224387 -0.173344 -0.471005 -11.820712 2.752686 -43.057465 -1.168450 1.890666 37.841536 2.521580 14.230825 -1.751775 1.929700 0.000000 -37.303500 8.722243 -1.079832 0.604580 8.018487 1.742298 -16.655640 2.664754 0.779443 6.931575 -0.424043 -1.189472 -3.508948 -0.432301 0.000000 -41.577200 1.194990 0.002409 1.135567 -0.561992 -0.096658 -2.616718 -5.812696 -0.164126 1.012536 7.243264 -0.453064 -3.977286 -3.349801 -0.282587 0.826372 0.000000 0.000000 0.000000 -2.725213 6.795225 3.155756 -47.251476 9.681550 25.297262 -4.095440 -36.993009 -0.028856 -12.025230 3.139787 -0.337885 -0.135853 -0.104912 -0.000000 0.000000 0.000000 0.000000 0.000000 0.000000 0.000000 12.527101 2.885066 1.260911 57.945064 32.737211 18.557847 2.527668 43.735894 0.022894 5.267223 9.969830 0.470752 0.004916 -0.229739 0.000000 0.000000 0.000000 0.000000 0.000000 0.000000 0.000000 
2.105338 17.557936 0.632697 19.651782 85.339040 42.115219 -10.055428 -0.240725 -0.348950 -11.924586 2.713183 -43.395068 -1.366952 1.665640 34.668455 2.476645 13.892175 -1.435728 2.021400 0.000001 -37.136400 8.809225 -1.118049 0.493499 7.929852 1.530361 -15.256521 2.679411 0.835258 5.960056 -0.329269 -0.776918 -3.112347 -0.401000 0.000001 -42.435300 0.857739 0.194875 1.152471 -0.613955 0.119185 -2.607700 -5.701917 0.053939 1.036932 7.002272 -0.503944 -4.012560 -3.256335 -0.276261 0.817632 0.000000 0.000000 0.000000 -2.905105 7.311232 3.107806 -47.162146 10.438024 25.009475 -4.118006 -36.932793 -0.029975 -12.070829 3.166646 -0.342421 -0.135895 -0.109243 -0.000000 0.000000 0.000000 0.000000 0.000000 0.000000 0.000000 11.904955 3.036760 1.233584 57.128018 33.675254 19.357632 2.390788 45.573759 0.022296 4.994416 9.953147 0.446347 0.002455 -0.240342 -0.000000 0.000000 0.000000 0.000000 0.000000 0.000000 0.000000 
2.300925 17.548164 0.645668 17.292210 85.084974 39.658063 -9.906997 -0.316327 -0.211848 -11.943364 2.669099 -43.663881 -1.563853 1.419040 31.384111 2.423130 13.533287 -1.089476 2.112900 0.000000 -37.045600 8.877632 -1.158237 0.377207 7.873446 1.343725 -13.860631 2.693973 0.886483 5.059392 -0.247207 -0.403290 -2.790040 -0.367300 -0.000000 -43.286900 0.559157 0.375998 1.163376 -0.657298 0.321200 -2.598567 -5.589233 0.258322 1.064280 6.754899 -0.564754 -4.053178 -3.158478 -0.269542 0.807915 0.000000 0.000000 0.000000 -3.083340 7.841849 3.058524 -47.060593 11.209694 24.691910 -4.137132 -36.943783 -0.031061 -12.125340 3.193911 -0.347353 -0.135746 -0.113368 -0.000000 0.000000 0.000000 0.000000 0.000000 0.000000 0.000000 11.256230 3.166734 1.200705 56.265130 34.610599 20.019744 2.250943 47.376496 0.021558 4.709056 9.916550 0.419942 0.000024 -0.251058 -0.000000 0.000000 0.000000 0.000000 0.000000 0.000000 0.000000 
